<svg id="_레이어_1" data-name="레이어 1" xmlns="http://www.w3.org/2000/svg" viewBox="0 0 512.1 72.21"><defs><style>.cls-1{fill:#231815;strokeWidth:0}</style></defs><path class="cls-1" d="M22.6 71.1V13.8H0V1.1h60.6v12.7H38v57.3H22.6zM64 36.1C64 15.3 80.2 0 102.2 0s38.1 15.2 38.1 36.1-16.2 36.1-38.1 36.1S64 56.9 64 36.1zm60.7 0c0-13.5-9.7-23-22.5-23s-22.6 9.5-22.6 23 9.7 23 22.6 23 22.5-9.5 22.5-23zM214.4 71.1h-16.7L184 51.4h-15.7v19.7h-15.4V39H182c10.2 0 15.5-4.7 15.5-12.6s-5.3-12.6-15.5-12.6h-29.1V1.1h29.9c18.7 0 30.3 9.6 30.3 25.3 0 10.5-5.3 18.2-14.5 22.1l15.8 22.6zM221.7 36.1c0-20.8 16.2-36.1 38.2-36.1S298 15.2 298 36.1s-16.2 36.1-38.1 36.1-38.2-15.3-38.2-36.1zm60.7 0c0-13.5-9.7-23-22.5-23s-22.6 9.5-22.6 23 9.7 23 22.6 23 22.5-9.5 22.5-23zM325.8 71.1h-15.2v-70h12.7L359 44.8V1.1h15.3v70h-12.7l-35.8-43.7v43.7zM386.4 62.4c0-5.5 4.2-9.3 9.4-9.3s9.4 3.8 9.4 9.3-4.2 9.4-9.4 9.4-9.4-3.9-9.4-9.4zM426.9 71.1h-15.8l31.2-70h15.3l31.3 70h-16.1l-22.9-54.7-23 54.7zM496.7 71.1v-70h15.4v70h-15.4z"/></svg>